<svg width="149" height="24" viewBox="0 0 149 24" fill="none" xmlns="http://www.w3.org/2000/svg">
<path d="M10.464 23.724C7.75467 23.724 5.51467 23.0947 3.744 21.836C1.99467 20.556 1.04533 18.6893 0.896 16.236H8.448C8.55467 17.5373 9.13067 18.188 10.176 18.188C10.56 18.188 10.88 18.1027 11.136 17.932C11.4133 17.74 11.552 17.452 11.552 17.068C11.552 16.5347 11.264 16.108 10.688 15.788C10.112 15.4467 9.216 15.0627 8 14.636C6.54933 14.124 5.344 13.6227 4.384 13.132C3.44533 12.6413 2.63467 11.9267 1.952 10.988C1.26933 10.0493 0.938667 8.844 0.96 7.372C0.96 5.9 1.33333 4.652 2.08 3.628C2.848 2.58267 3.88267 1.79333 5.184 1.26C6.50667 0.726665 7.98933 0.459999 9.632 0.459999C12.4053 0.459999 14.6027 1.1 16.224 2.38C17.8667 3.66 18.7307 5.46267 18.816 7.788H11.168C11.1467 7.148 10.9867 6.68933 10.688 6.412C10.3893 6.13467 10.0267 5.996 9.6 5.996C9.30133 5.996 9.056 6.10267 8.864 6.316C8.672 6.508 8.576 6.78533 8.576 7.148C8.576 7.66 8.85333 8.08667 9.408 8.428C9.984 8.748 10.8907 9.14267 12.128 9.612C13.5573 10.1453 14.7307 10.6573 15.648 11.148C16.5867 11.6387 17.3973 12.3213 18.08 13.196C18.7627 14.0707 19.104 15.1693 19.104 16.492C19.104 17.8787 18.7627 19.1267 18.08 20.236C17.3973 21.324 16.4053 22.1773 15.104 22.796C13.8027 23.4147 12.256 23.724 10.464 23.724ZM42.56 0.844V23.5H35.456V14.668H28.704V23.5H21.6V0.844H28.704V9.004H35.456V0.844H42.56ZM56.7963 23.724C54.6629 23.724 52.7003 23.2227 50.9083 22.22C49.1376 21.2173 47.7296 19.8307 46.6843 18.06C45.6389 16.2893 45.1163 14.2947 45.1163 12.076C45.1163 9.85733 45.6389 7.86267 46.6843 6.092C47.7296 4.32133 49.1376 2.94533 50.9083 1.964C52.7003 0.961332 54.6629 0.459999 56.7963 0.459999C58.9296 0.459999 60.8816 0.961332 62.6523 1.964C64.4229 2.94533 65.8203 4.32133 66.8443 6.092C67.8896 7.86267 68.4123 9.85733 68.4123 12.076C68.4123 14.2947 67.8896 16.2893 66.8443 18.06C65.8203 19.8307 64.4123 21.2173 62.6203 22.22C60.8496 23.2227 58.9083 23.724 56.7963 23.724ZM56.7963 17.1C58.2043 17.1 59.2923 16.652 60.0603 15.756C60.8283 14.8387 61.2123 13.612 61.2123 12.076C61.2123 10.5187 60.8283 9.292 60.0603 8.396C59.2923 7.47867 58.2043 7.02 56.7963 7.02C55.3669 7.02 54.2683 7.47867 53.5003 8.396C52.7323 9.292 52.3483 10.5187 52.3483 12.076C52.3483 13.612 52.7323 14.8387 53.5003 15.756C54.2683 16.652 55.3669 17.1 56.7963 17.1ZM89.503 8.62C89.503 10.0493 89.1723 11.3507 88.511 12.524C87.8497 13.676 86.8683 14.5933 85.567 15.276C84.287 15.9587 82.7297 16.3 80.895 16.3H78.079V23.5H70.975V0.844H80.895C83.6683 0.844 85.791 1.548 87.263 2.956C88.7563 4.364 89.503 6.252 89.503 8.62ZM80.095 10.7C81.567 10.7 82.303 10.0067 82.303 8.62C82.303 7.23333 81.567 6.54 80.095 6.54H78.079V10.7H80.095ZM95.2763 23.756C94.0389 23.756 93.0469 23.4253 92.3003 22.764C91.5536 22.1027 91.1803 21.2707 91.1803 20.268C91.1803 19.244 91.5536 18.4013 92.3003 17.74C93.0469 17.0573 94.0389 16.716 95.2763 16.716C96.4923 16.716 97.4736 17.0573 98.2203 17.74C98.9669 18.4013 99.3403 19.244 99.3403 20.268C99.3403 21.2707 98.9669 22.1027 98.2203 22.764C97.4736 23.4253 96.4923 23.756 95.2763 23.756ZM101.335 12.14C101.335 9.9 101.783 7.90533 102.679 6.156C103.596 4.40667 104.898 3.052 106.583 2.092C108.268 1.11067 110.252 0.619999 112.535 0.619999C114.498 0.619999 116.247 0.993333 117.783 1.74C119.34 2.46533 120.599 3.5 121.559 4.844C122.54 6.188 123.191 7.756 123.511 9.548H116.023C115.682 8.80133 115.191 8.22533 114.551 7.82C113.932 7.39333 113.218 7.18 112.407 7.18C111.212 7.18 110.263 7.628 109.559 8.524C108.876 9.42 108.535 10.6253 108.535 12.14C108.535 13.6547 108.876 14.86 109.559 15.756C110.263 16.652 111.212 17.1 112.407 17.1C113.218 17.1 113.932 16.8973 114.551 16.492C115.191 16.0653 115.682 15.4787 116.023 14.732H123.511C123.191 16.524 122.54 18.092 121.559 19.436C120.599 20.78 119.34 21.8253 117.783 22.572C116.247 23.2973 114.498 23.66 112.535 23.66C110.252 23.66 108.268 23.18 106.583 22.22C104.898 21.2387 103.596 19.8733 102.679 18.124C101.783 16.3747 101.335 14.38 101.335 12.14ZM137.109 23.724C134.975 23.724 133.013 23.2227 131.221 22.22C129.45 21.2173 128.042 19.8307 126.997 18.06C125.951 16.2893 125.429 14.2947 125.429 12.076C125.429 9.85733 125.951 7.86267 126.997 6.092C128.042 4.32133 129.45 2.94533 131.221 1.964C133.013 0.961332 134.975 0.459999 137.109 0.459999C139.242 0.459999 141.194 0.961332 142.965 1.964C144.735 2.94533 146.133 4.32133 147.157 6.092C148.202 7.86267 148.725 9.85733 148.725 12.076C148.725 14.2947 148.202 16.2893 147.157 18.06C146.133 19.8307 144.725 21.2173 142.933 22.22C141.162 23.2227 139.221 23.724 137.109 23.724ZM137.109 17.1C138.517 17.1 139.605 16.652 140.373 15.756C141.141 14.8387 141.525 13.612 141.525 12.076C141.525 10.5187 141.141 9.292 140.373 8.396C139.605 7.47867 138.517 7.02 137.109 7.02C135.679 7.02 134.581 7.47867 133.813 8.396C133.045 9.292 132.661 10.5187 132.661 12.076C132.661 13.612 133.045 14.8387 133.813 15.756C134.581 16.652 135.679 17.1 137.109 17.1Z" fill="black"/>
</svg>
